<svg xmlns="http://www.w3.org/2000/svg" version="1.1" xmlns:xlink="http://www.w3.org/1999/xlink" viewBox="0 0 200 200"><rect width="200" height="200" fill="url('#gradient')"></rect><defs><linearGradient id="gradient" gradientTransform="rotate(45 0.5 0.5)"><stop offset="0%" stop-color="#3d342c"></stop><stop offset="100%" stop-color="#3d342c"></stop></linearGradient></defs><g><g fill="#fff7ee" transform="matrix(2.133827274832137,0,0,2.133827274832137,7.710016833021847,115.8032177705184)" stroke="#544636" stroke-width="0.2"><path d="M12.95-14.22L12.95 0L9.54 0L4.50-8.85L4.50 0L1.07 0L1.07-14.22L4.50-14.22L9.53-5.37L9.53-14.22L12.95-14.22ZM21.51 0L19.21-3.94L18.28-3.01L18.28 0L14.99 0L14.99-15.01L18.28-15.01L18.28-7.04L18.61-7.48L21.09-10.57L25.04-10.57L21.34-6.22L25.28 0L21.51 0ZM32.33-7.40L32.33-4.85L26.46-4.85L26.46-7.40L32.33-7.40ZM42.84 0L40.33-5.02L38.48-5.02L38.48 0L35.05 0L35.05-14.22L40.64-14.22Q43.17-14.22 44.60-13.10Q46.03-11.97 46.03-9.92L46.03-9.92Q46.03-8.44 45.42-7.46Q44.82-6.48 43.54-5.88L43.54-5.88L46.51-0.15L46.51 0L42.84 0ZM38.48-11.57L38.48-7.67L40.64-7.67Q41.62-7.67 42.11-8.18Q42.61-8.69 42.61-9.61Q42.61-10.53 42.11-11.05Q41.61-11.57 40.64-11.57L40.64-11.57L38.48-11.57ZM54.34 0L54.24-1.14Q53.19 0.20 51.42 0.20L51.42 0.20Q49.68 0.20 48.78-0.82Q47.89-1.83 47.89-3.72L47.89-3.72L47.89-10.57L51.18-10.57L51.18-3.70Q51.18-2.34 52.50-2.34L52.50-2.34Q53.63-2.34 54.11-3.15L54.11-3.15L54.11-10.57L57.42-10.57L57.42 0L54.34 0ZM59.77-13.19L63.06-13.19L63.06-10.57L64.79-10.57L64.79-8.28L63.06-8.28L63.06-3.45Q63.06-2.85 63.27-2.62Q63.49-2.38 64.12-2.38L64.12-2.38Q64.61-2.38 64.94-2.44L64.94-2.44L64.94-0.09Q64.05 0.20 63.09 0.20L63.09 0.20Q61.39 0.20 60.58-0.61Q59.77-1.41 59.77-3.04L59.77-3.04L59.77-8.28L58.42-8.28L58.42-10.57L59.77-10.57L59.77-13.19ZM75.33 0L72.04 0Q71.87-0.32 71.73-0.95L71.73-0.95Q70.82 0.20 69.19 0.20L69.19 0.20Q67.70 0.20 66.65-0.71Q65.61-1.61 65.61-2.98L65.61-2.98Q65.61-4.70 66.88-5.58Q68.14-6.46 70.57-6.46L70.57-6.46L71.58-6.46L71.58-7.01Q71.58-8.47 70.32-8.47L70.32-8.47Q69.15-8.47 69.15-7.31L69.15-7.31L65.86-7.31Q65.86-8.85 67.16-9.80Q68.47-10.76 70.49-10.76Q72.51-10.76 73.68-9.78Q74.85-8.79 74.88-7.07L74.88-7.07L74.88-2.39Q74.90-0.94 75.33-0.17L75.33-0.17L75.33 0ZM69.98-2.15L69.98-2.15Q70.60-2.15 71.00-2.41Q71.41-2.68 71.58-3.01L71.58-3.01L71.58-4.70L70.63-4.70Q68.91-4.70 68.91-3.15L68.91-3.15Q68.91-2.71 69.21-2.43Q69.51-2.15 69.98-2.15ZM82.24-2.97L82.24-2.97Q82.24-3.39 81.80-3.64Q81.36-3.90 80.13-4.17Q78.90-4.44 78.10-4.89Q77.29-5.33 76.88-5.97Q76.46-6.60 76.46-7.42L76.46-7.42Q76.46-8.88 77.66-9.82Q78.86-10.76 80.80-10.76L80.80-10.76Q82.89-10.76 84.16-9.81Q85.43-8.87 85.43-7.32L85.43-7.32L82.13-7.32Q82.13-8.59 80.79-8.59L80.79-8.59Q80.27-8.59 79.92-8.31Q79.57-8.02 79.57-7.59L79.57-7.59Q79.57-7.15 80-6.88Q80.43-6.60 81.37-6.43Q82.31-6.25 83.03-6.01L83.03-6.01Q85.41-5.19 85.41-3.07L85.41-3.07Q85.41-1.62 84.13-0.71Q82.84 0.20 80.80 0.20L80.80 0.20Q79.44 0.20 78.38-0.29Q77.31-0.78 76.72-1.62Q76.12-2.46 76.12-3.39L76.12-3.39L79.20-3.39Q79.22-2.66 79.69-2.32Q80.16-1.98 80.89-1.98L80.89-1.98Q81.56-1.98 81.90-2.26Q82.24-2.53 82.24-2.97Z"></path></g></g></svg>